<?xml version="1.0" encoding="UTF-8" standalone="no"?>
<svg
   xmlns:dc="http://purl.org/dc/elements/1.1/"
   xmlns:cc="http://creativecommons.org/ns#"
   xmlns:rdf="http://www.w3.org/1999/02/22-rdf-syntax-ns#"
   xmlns:svg="http://www.w3.org/2000/svg"
   xmlns="http://www.w3.org/2000/svg"
   xmlns:sodipodi="http://sodipodi.sourceforge.net/DTD/sodipodi-0.dtd"
   xmlns:inkscape="http://www.inkscape.org/namespaces/inkscape"
   version="1.1"
   id="svg62"
   width="200"
   height="201.00023"
   viewBox="0 0 200 201.00023"
   sodipodi:docname="app_icon.svg"
   inkscape:version="1.0beta2 (2b71d25, 2019-12-03)">
  <metadata
     id="metadata68">
    <rdf:RDF>
      <cc:Work
         rdf:about="">
        <dc:format>image/svg+xml</dc:format>
        <dc:type
           rdf:resource="http://purl.org/dc/dcmitype/StillImage" />
        <dc:title></dc:title>
      </cc:Work>
    </rdf:RDF>
  </metadata>
  <defs
     id="defs66">
    <clipPath
       id="clipPath63"
       clipPathUnits="userSpaceOnUse">
      <rect
         y="40.390102"
         x="-1.1547547e-07"
         height="210.03453"
         width="169.64326"
         id="rect65"
         style="fill:#008000" />
    </clipPath>
  </defs>
  <sodipodi:namedview
     pagecolor="#ffffff"
     bordercolor="#666666"
     inkscape:document-rotation="0"
     borderopacity="1"
     objecttolerance="10"
     gridtolerance="10"
     guidetolerance="10"
     inkscape:pageopacity="0"
     inkscape:pageshadow="2"
     inkscape:window-width="1920"
     inkscape:window-height="1035"
     id="namedview64"
     showgrid="false"
     inkscape:zoom="3.7136752"
     inkscape:cx="140.12716"
     inkscape:cy="103.55342"
     inkscape:window-x="0"
     inkscape:window-y="23"
     inkscape:window-maximized="0"
     inkscape:current-layer="g70" />
  <g
     inkscape:groupmode="layer"
     inkscape:label="Image"
     id="g70"
     transform="translate(-2.1542002,-42.813579)">
    <path
       transform="matrix(0.79601899,0,0,0.79601899,33.777178,29.233271)"
       clip-path="url(#clipPath63)"
       style="fill:#008000;fill-opacity:1"
       d="M 30.1542,242.87845 C 18.257197,239.24643 11.142602,230.14902 11.163969,218.5957 c 0.01886,-10.19678 6.956181,-19.9379 16.453032,-23.10271 l 4.037199,-1.34539 0.263917,-30.9321 0.263918,-30.93211 -6.513918,-6.45602 -6.513917,-6.45601 V 103.59247 87.813579 h -8.5 -8.4999998 v -3.442502 c 0,-3.335101 0.1325941,-3.452096 4.25,-3.75 L 10.6542,80.313579 11.158665,73.971611 C 11.816449,65.702147 13.881321,63.813579 22.264984,63.813579 H 28.1542 v -3.275028 c 0,-2.737641 1.193483,-4.460545 7.273516,-10.5 l 7.273516,-7.224972 h 45.501512 45.501516 l 7.15706,7.25 c 5.13019,5.19681 7.24709,8.099596 7.47497,10.25 0.30835,2.909833 0.50265,3.015028 6.46439,3.5 9.49845,0.772675 10.48793,2.132881 10.13749,13.935732 l -0.28397,9.564268 -3.72421,0.308828 -3.72421,0.308827 -0.27579,70.691176 -0.27579,70.69117 -3.36698,4.8502 c -2.39237,3.44625 -4.8528,5.54203 -8.5,7.24023 -5.12173,2.38477 -5.21497,2.39005 -42.38302,2.3998 l -37.25,0.01 v -4 -4 l 37.25,-0.004 c 35.15826,-0.004 37.42945,-0.11315 40.44567,-1.95226 7.1964,-4.38792 6.77181,0.0709 7.09403,-74.49909 0.15934,-36.8747 0.0383,-68.057411 -0.26905,-69.294911 l -0.55875,-2.24974 H 99.135148 49.1542 v -3.491388 -3.491387 l 54.25,-0.258613 54.25,-0.258612 0.3075,-4.25 0.3075,-4.25 H 88.1542 18.039204 l 0.307498,4.25 0.307498,4.25 10.25,0.284983 10.25,0.284983 v 3.465017 3.465017 h -6 -6 v 14.281301 14.28131 l 5.986775,5.9243 5.986775,5.92431 0.263225,32.89499 0.263225,32.895 4.906355,1.8621 c 13.236029,5.02345 19.307175,20.41974 13.212876,33.50755 -4.749539,10.19988 -17.693849,16.52412 -27.619231,13.49401 z m 12.258199,-8.52829 c 4.401702,-1.83914 8.337855,-6.45629 9.873449,-11.58165 2.949891,-9.84585 -5.592863,-20.95493 -16.114107,-20.95493 -5.444893,0 -10.031957,2.03999 -13.287932,5.90949 -11.599534,13.78527 2.911051,33.57035 19.52859,26.62709 z M 32.1542,218.81358 c 0,-3.90476 0.08333,-4 3.5,-4 3.416667,0 3.5,0.0952 3.5,4 0,3.90476 -0.08333,4 -3.5,4 -3.416667,0 -3.5,-0.0952 -3.5,-4 z m 109,-156.556251 c 0,-0.855938 -2.18987,-3.780938 -4.86638,-6.5 l -4.86639,-4.94375 H 88.265349 45.109266 l -4.977533,5.218645 c -2.737643,2.870254 -4.977533,5.795254 -4.977533,6.5 0,1.025689 10.57497,1.281355 53,1.281355 47.29585,0 53,-0.167492 53,-1.55625 z m 67.1872,159.806251 c -1.28532,-1.10566 -3.39169,-6.35246 -5.72079,-14.25 -2.02753,-6.875 -4.9147,-16.55 -6.41593,-21.5 l -2.72951,-9 -3.56546,-0.3047 c -2.78367,-0.23789 -3.91521,0.19462 -5.16049,1.97251 -0.87726,1.25246 -1.59502,3.08524 -1.59502,4.07284 0,1.48791 0.72834,1.74968 4.25,1.52749 4.23315,-0.26708 4.25,-0.25442 4.25,3.19352 0,6.89201 -9.24205,8.14995 -12.34301,1.68002 -4.24388,-8.85456 7.13426,-20.31043 18.12477,-18.2486 6.29598,1.18113 8.18969,4.08975 13.35075,20.50582 2.61121,8.30561 5.06828,15.1011 5.46017,15.1011 0.39188,0 1.71161,-3.2625 2.93272,-7.25 1.97147,-6.43778 2.08032,-7.75414 0.97163,-11.75 -2.15145,-7.75411 -2.26635,-8.97057 -0.99226,-10.50575 1.59341,-1.91993 8.3744,-1.94724 9.95719,-0.0401 0.66377,0.79979 3.08137,7.4595 5.37244,14.79936 2.29108,7.33985 4.5624,13.54798 5.04738,13.79583 1.29197,0.66028 5.44585,-12.91054 6.19754,-20.24755 0.36008,-3.5145 0.18815,-7.98443 -0.38726,-10.06837 -1.54268,-5.58716 1.92578,-8.5614 6.2752,-5.38103 3.45117,2.52356 1.77957,11.4633 -7.60049,40.6476 -3.35175,10.42834 -5.0234,13 -8.45033,13 -3.44204,0 -5.19058,-2.41195 -7.47514,-10.31125 -2.33191,-8.06303 -3.85835,-12.13267 -4.3389,-11.56798 -0.1775,0.20858 -1.77141,4.65423 -3.54203,9.87923 -4.05823,11.97563 -6.9575,14.47855 -11.87317,10.25 z m 49.12183,0.28395 c -2.50001,-1.08726 -3.34225,-2.1941 -3.88956,-5.11153 -0.38422,-2.04807 -0.29828,-5.34346 0.19097,-7.32309 0.79823,-3.22977 1.68528,-3.98909 8.63956,-7.39544 6.87156,-3.36584 7.75,-4.10826 7.75,-6.55 0,-3.4925 -1.65723,-5.15389 -5.14098,-5.15389 -3.28061,0 -4.53491,1.52237 -2.28958,2.77892 0.97373,0.54493 1.47675,1.85546 1.27103,3.31146 -0.28337,2.0055 -0.90918,2.40962 -3.73148,2.40962 -4.261,0 -5.92515,-2.26172 -4.55987,-6.19723 2.65367,-7.64934 19.72181,-8.46485 24.82019,-1.1859 1.28551,1.83534 1.63069,4.84378 1.63069,14.21263 0,10.94545 0.13827,11.82359 1.75,11.11386 2.50337,-1.10238 5.282,-0.91273 8.91983,0.6088 2.61604,1.09417 3.4459,1.09668 4.75,0.0144 2.58431,-2.14478 1.83498,-4.94627 -2.78364,-10.40704 -6.87113,-8.124 -7.83392,-10.93665 -5.49835,-16.06266 2.7339,-6.00027 16.97102,-6.04284 19.69749,-0.0589 1.36596,2.99796 0.62752,5.18039 -2.03922,6.02678 -2.69904,0.85664 -5.75193,-2.00889 -4.00325,-3.75757 1.96876,-1.96876 1.38853,-2.96092 -1.53431,-2.62356 -4.83307,0.55784 -4.02195,3.49237 2.89408,10.47042 6.0494,6.10365 6.34737,6.63272 6.34737,11.27016 0,5.87212 -2.0991,8.62153 -7.74248,10.14113 -4.77502,1.28578 -8.57641,0.54684 -13.1486,-2.55594 -2.83858,-1.92631 -3.55804,-2.08432 -4.01915,-0.88268 -1.46462,3.81674 -11.50303,5.13764 -13.39203,1.76219 -0.6426,-1.14826 -1.45391,-1.04266 -4.69867,0.61161 -4.58233,2.33621 -5.88777,2.40455 -10.19004,0.53348 z m 11.49097,-5.73395 c 1.80027,-1.80027 1.5912,-12.8 -0.2433,-12.8 -2.24304,0 -4.5567,4.07341 -4.5567,8.02251 0,3.21325 1.38732,5.97749 3,5.97749 0.33,0 1.14,-0.54 1.8,-1.2 z m 51.59522,5.77019 c -3.98388,-1.7342 -4.36502,-3.3713 -4.38157,-18.82019 -0.0129,-12.07878 -0.11894,-12.75 -2.01365,-12.75 -3.49271,0 -2.15956,-2.74435 2.40703,-4.955 2.96186,-1.4338 4.9448,-3.26665 6.04692,-5.5892 1.04478,-2.2017 2.34865,-3.4558 3.59297,-3.4558 1.67703,0 1.95308,0.7067 1.95308,5 0,4.62851 0.18058,5 2.43045,5 1.75912,0 2.51871,-0.62149 2.75,-2.25 0.47541,-3.34744 4.22752,-3.04372 4.62384,0.37428 0.4059,3.50054 -2.17141,5.87572 -6.37572,5.87572 h -3.42857 v 13.5 c 0,14.11565 0.40231,15.25587 4.17739,11.83946 2.65673,-2.4043 3.31183,-0.97623 1.19559,2.60628 -1.17155,1.98328 -3.08034,3.43382 -5.34743,4.06365 -4.2753,1.18775 -3.83456,1.21312 -7.63033,-0.4392 z m 27.51835,0.47409 c -4.5878,-1.39034 -7.76808,-4.11229 -9.86446,-8.44284 -5.76451,-11.90787 1.90256,-26.14803 14.71897,-27.33776 5.89282,-0.54702 9.91133,0.93859 11.40473,4.21624 1.77843,3.90324 -0.23588,6.89253 -7.36412,10.92852 -9.76892,5.53115 -9.16238,4.80931 -7.46155,8.87995 1.46935,3.51666 5.84834,6.71161 9.19891,6.71161 0.90495,0 2.93845,-0.76384 4.51889,-1.69743 4.15492,-2.45437 4.98544,-0.63027 1.23767,2.71835 -4.68598,4.18693 -10.85334,5.70095 -16.38904,4.02336 z m 4.86392,-22.60098 c 2.48794,-1.74262 3.03156,-6.52696 0.93897,-8.26365 -1.69232,-1.4045 -3.34656,-0.28277 -4.6539,3.1558 -2.32464,6.11427 -0.77125,8.25009 3.71493,5.10785 z M 74.1542,218.81358 c 0,-3.90476 0.08333,-4 3.5,-4 3.416667,0 3.5,0.0952 3.5,4 0,3.90476 -0.08333,4 -3.5,4 -3.416667,0 -3.5,-0.0952 -3.5,-4 z m 17,0 c 0,-3.90476 0.08333,-4 3.5,-4 3.416667,0 3.5,0.0952 3.5,4 0,3.90476 -0.08333,4 -3.5,4 -3.416667,0 -3.5,-0.0952 -3.5,-4 z m 16.38953,2.57273 c -0.30123,-0.785 -0.39961,-2.4725 -0.21861,-3.75 0.26771,-1.88954 1.02846,-2.38061 4.07908,-2.6331 l 3.75,-0.31036 v 4.06036 c 0,3.98063 -0.0694,4.06037 -3.53138,4.06037 -2.13655,0 -3.74772,-0.56375 -4.07909,-1.42727 z M 83.024372,191.24871 C 71.89798,187.82279 62.62869,178.25765 59.003045,166.46069 c -6.162597,-20.05156 6.096339,-42.04525 26.005625,-46.65654 12.341112,-2.85839 25.30207,0.31579 34.92595,8.55347 l 4.21958,3.6118 v -2.57792 c 0,-2.34091 0.36776,-2.57792 4,-2.57792 h 4 v 8.8 c 0,5.51111 -0.44848,9.24848 -1.2,10 -0.75152,0.75152 -4.48889,1.2 -10,1.2 h -8.8 v -4 c 0,-3.77778 0.16667,-4 3,-4 1.65,0 3,-0.40338 3,-0.89641 0,-1.41521 -6.6425,-6.87771 -11.2778,-9.27439 -5.26793,-2.72376 -18.157079,-3.0417 -23.861764,-0.58861 -4.928466,2.11932 -11.413937,8.14138 -14.572744,13.53147 -3.063474,5.22743 -4.196552,16.18692 -2.371292,22.93589 1.500822,5.54934 6.527269,12.03635 12.376824,15.97322 17.042339,11.46985 41.198336,1.45997 44.932476,-18.61935 l 1.12731,-6.06182 h 3.7985 c 3.7303,0 3.78873,0.0583 3.25497,3.25 -2.21201,13.22695 -6.57779,20.83726 -15.50698,27.03137 -9.14323,6.34258 -22.43345,8.41633 -33.029328,5.15376 z M 90.147726,175.8232 C 80.257044,173.03574 74.1542,165.40417 74.1542,155.8234 c 0,-8.78977 5.510614,-16.51459 13.889899,-19.47097 5.969402,-2.10613 6.110101,-2.0531 6.110101,2.30286 0,3.62316 -0.23028,3.91071 -4.047823,5.05447 -7.108714,2.12982 -10.37726,10.09376 -7.143246,17.40478 1.590852,3.59639 2.789414,4.74647 6.56487,6.29934 4.128001,1.69787 4.6191,2.23872 4.622451,5.09068 0.0044,3.74832 -0.625378,4.27046 -4.002726,3.31864 z M 228.05784,145.52763 c -2.58311,-1.74076 -5.19079,-5.78391 -10.93376,-16.95255 -4.1479,-8.06663 -7.86299,-14.98795 -8.25576,-15.38071 -0.39277,-0.39277 -0.71412,3.99987 -0.71412,9.76141 0,12.2781 -0.88626,14.2578 -6.38283,14.2578 -1.98944,0 -4.17967,-0.56156 -4.86717,-1.24792 -0.90436,-0.90286 -1.33409,-7.31793 -1.55413,-23.2 l -0.30412,-21.952081 h -3.33509 c -3.75901,0 -7.29109,2.506629 -7.75003,5.5 -0.26336,1.717772 0.25783,2 3.69337,2 3.75644,0 4.01864,0.192043 4.30619,3.153931 0.54255,5.58852 -6.16446,8.3058 -10.94541,4.43442 -1.85126,-1.49906 -2.36078,-2.88775 -2.36078,-6.434335 0,-9.34876 9.24847,-14.102545 27.5,-14.135219 8.92824,-0.01598 11.11559,0.310541 14.61239,2.181323 4.19471,2.244159 7.38761,7.099086 7.38761,11.233128 0,3.476733 -2.56796,8.583103 -5.35252,10.643413 l -2.59942,1.92334 2.76275,4.083 c 1.51951,2.24565 4.77119,8.00876 7.22597,12.80692 5.42313,10.6002 10.03282,16.04015 12.83769,15.14992 3.59342,-1.14051 3.35707,1.46547 -0.27038,2.98112 -5.19164,2.1692 -10.73577,1.86488 -14.70045,-0.80691 z m -13.42932,-38.66439 c 0.83912,-1.62269 1.52568,-5.36925 1.52568,-8.325687 0,-4.34569 -0.4491,-5.797254 -2.34454,-7.57793 -1.43166,-1.344971 -2.98913,-1.955235 -4,-1.567325 -1.38625,0.531952 -1.65546,2.244079 -1.65546,10.52827 0,9.858502 0.009,9.893012 2.47432,9.893012 1.72858,0 2.93415,-0.88921 4,-2.95034 z m 31.52568,29.81249 c -4.50267,-1.31172 -8.64993,-5.27139 -10.08941,-9.63307 -1.64989,-4.99921 -0.71079,-14.67579 1.74614,-17.99252 6.4943,-8.76694 19.57698,-10.879102 24.6927,-3.98656 2.03526,2.74216 2.03544,2.75754 0.0661,5.3952 -1.08621,1.45487 -4.99907,4.45134 -8.69525,6.65883 -7.83068,4.67676 -8.30974,6.30655 -3.32032,11.29597 3.76274,3.76274 6.19745,4.17665 10.74259,1.82626 3.39458,-1.7554 4.82269,-1.1801 3.25195,1.31004 -2.6083,4.13508 -12.41493,6.86782 -18.3945,5.12585 z m 7.80429,-26.18656 c 0.16736,-1.33328 -0.48183,-3.21027 -1.44264,-4.17108 -1.66257,-1.66258 -1.8342,-1.63915 -3.55429,0.48506 -1.0678,1.31867 -1.80736,3.86363 -1.80736,6.21941 v 3.98742 l 3.25,-2.04833 c 1.93625,-1.22033 3.373,-3.02824 3.55429,-4.47248 z m 24.13731,26.37618 c -4.51939,-1.37137 -6.71752,-2.95192 -8.74649,-6.28912 -7.66023,-12.59937 1.10961,-29.76265 15.20767,-29.76265 4.9899,0 8.45219,1.58759 9.77003,4.47992 1.7926,3.93434 -0.24039,6.90076 -7.51892,10.97114 -3.55492,1.98803 -6.92777,4.17401 -7.49522,4.85775 -1.50805,1.8171 1.5147,7.47092 4.94171,9.2431 3.80293,1.96657 6.15605,1.82082 9.19487,-0.56951 3.66299,-2.88131 4.61207,-0.53887 1.21731,3.00449 -1.48825,1.5534 -4.66168,3.31683 -7.05206,3.91874 -4.88949,1.23119 -5.89235,1.24658 -9.5189,0.14614 z m 4.83589,-22.60848 c 2.48794,-1.74261 3.03156,-6.52695 0.93897,-8.26364 -1.69232,-1.40451 -3.34656,-0.28277 -4.6539,3.1558 -2.32464,6.11427 -0.77125,8.25009 3.71493,5.10784 z m 26.22251,22.40973 c -7.77314,-2.24419 -11.6202,-9.07673 -10.71728,-19.03432 0.64887,-7.15586 4.03334,-12.15006 10.10119,-14.90559 7.06992,-3.210574 15.36337,-1.95794 17.45682,2.63666 1.76871,3.88192 -0.2029,6.54743 -8.39535,11.35006 -8.61725,5.05166 -9.15078,6.59477 -4.04538,11.70017 3.68236,3.68236 6.57506,4.20086 10.6,1.9 3.21552,-1.83816 4,-1.84094 4,-0.0142 0,2.16326 -6.85699,6.25152 -11.5,6.8565 -2.2,0.28666 -5.575,0.0665 -7.5,-0.48929 z m 5.53518,-22.46803 c 2.79744,-1.83295 3.18972,-5.06507 0.96415,-7.94386 -1.47266,-1.90491 -1.53797,-1.89708 -3.5,0.41965 -2.08929,2.46701 -2.79318,9.13922 -0.96415,9.13922 0.56935,0 2.14435,-0.72676 3.5,-1.61501 z"
       id="path78"
       inkscape:connector-curvature="0" />
  </g>
</svg>
